<!-- Generated by IcoMoon.io -->
<svg version="1.1" xmlns="http://www.w3.org/2000/svg" width="32" height="32" viewBox="0 0 32 32">
<title>cross</title>
<path d="M30.921 6.335c0.666-0.666 1.078-1.586 1.078-2.602 0-1.014-0.41-1.933-1.074-2.598l0 0-0.060-0.056c-0.666-0.665-1.585-1.076-2.6-1.076s-1.934 0.411-2.6 1.076l-9.169 9.173c-0.127 0.126-0.303 0.204-0.496 0.204s-0.369-0.078-0.496-0.204l-9.169-9.173c-0.666-0.666-1.586-1.078-2.602-1.078-1.014 0-1.933 0.41-2.598 1.074l0-0-0.056 0.060c-0.665 0.666-1.076 1.585-1.076 2.6s0.411 1.934 1.076 2.6l9.173 9.169c0.126 0.127 0.204 0.303 0.204 0.496s-0.078 0.369-0.204 0.496l-9.173 9.169c-0.666 0.666-1.078 1.586-1.078 2.602 0 1.014 0.41 1.933 1.074 2.598l0.060 0.060c0.666 0.665 1.585 1.076 2.6 1.076s1.934-0.411 2.6-1.076l9.169-9.173c0.127-0.126 0.303-0.204 0.496-0.204s0.369 0.078 0.496 0.204l9.169 9.169c0.666 0.666 1.586 1.078 2.602 1.078 1.014 0 1.933-0.41 2.598-1.074l0.060-0.060c0.665-0.666 1.076-1.585 1.076-2.6s-0.411-1.934-1.076-2.6l-9.177-9.169c-0.126-0.127-0.204-0.303-0.204-0.496s0.078-0.369 0.204-0.496l9.173-9.169z"></path>
</svg>
